<?xml version="1.0" encoding="UTF-8"?>
<svg xmlns="http://www.w3.org/2000/svg" xmlns:xlink="http://www.w3.org/1999/xlink" width="75pt" height="59pt" viewBox="0 0 75 59" version="1.1">
<g id="surface1">
<path style=" stroke:none;fill-rule:evenodd;fill:rgb(13.699341%,12.199402%,12.5%);fill-opacity:1;" d="M 38.089844 43.226563 C 38.128906 42.789063 38.78125 38.730469 38.871094 38.519531 C 39.628906 38.40625 40.664063 38.59375 41.070313 39 C 41.328125 39.257813 41.414063 39.453125 41.488281 39.914063 C 41.671875 41.054688 41.320313 42.175781 40.402344 42.800781 C 39.746094 43.25 38.980469 43.234375 38.089844 43.226563 Z M 37.191406 43.890625 C 38.390625 43.859375 39.699219 44.039063 40.671875 43.480469 C 42.804688 42.253906 42.78125 39.246094 41.523438 38.320313 C 40.664063 37.6875 39.441406 37.769531 38.238281 37.769531 C 38.136719 37.824219 38.199219 37.722656 38.148438 37.910156 C 38.136719 37.953125 38.125 38.050781 38.117188 38.097656 C 37.832031 39.847656 37.375 42.285156 37.191406 43.890625 "/>
<path style=" stroke:none;fill-rule:evenodd;fill:rgb(13.699341%,12.199402%,12.5%);fill-opacity:1;" d="M 48.421875 41.066406 C 48.882813 41.085938 49.5 41.042969 49.867188 41.25 C 50.164063 41.417969 50.414063 41.875 50.296875 42.351563 C 50.074219 43.257813 49.054688 43.28125 48.066406 43.277344 Z M 48.554688 40.40625 C 48.597656 40.027344 48.648438 39.648438 48.695313 39.265625 C 48.808594 38.355469 48.726563 38.484375 49.175781 38.484375 C 49.566406 38.484375 49.992188 38.496094 50.261719 38.738281 C 50.824219 39.246094 50.5 40.542969 48.554688 40.40625 Z M 50.269531 40.726563 C 50.65625 40.457031 50.886719 40.394531 51.144531 39.8125 C 51.339844 39.363281 51.316406 38.761719 51.050781 38.394531 C 50.53125 37.671875 48.996094 37.710938 48.148438 37.785156 L 47.183594 43.898438 C 48.605469 43.929688 50.457031 44.105469 50.992188 42.710938 C 51.289063 41.933594 51.039063 41.160156 50.269531 40.726563 "/>
<path style=" stroke:none;fill-rule:evenodd;fill:rgb(13.699341%,12.199402%,12.5%);fill-opacity:1;" d="M 47.078125 37.785156 L 44.003906 37.78125 C 43.855469 38.386719 43.105469 43.1875 43.035156 43.890625 C 43.695313 43.890625 45.675781 43.972656 46.183594 43.820313 L 46.304688 43.21875 L 43.929688 43.207031 L 44.207031 41.578125 C 44.316406 40.953125 44.011719 41.113281 46.132813 41.125 L 46.125 40.351563 L 44.386719 40.34375 L 44.683594 38.535156 L 46.921875 38.507813 L 47.078125 37.785156 "/>
<path style=" stroke:none;fill-rule:evenodd;fill:rgb(13.699341%,12.199402%,12.5%);fill-opacity:1;" d="M 54.613281 38.523438 L 56.449219 38.535156 L 55.613281 43.925781 L 56.402344 43.878906 C 56.527344 43 56.699219 42.085938 56.839844 41.195313 C 56.980469 40.304688 57.101563 39.378906 57.285156 38.523438 L 59.136719 38.515625 L 59.128906 37.792969 C 58.542969 37.722656 57.550781 37.785156 56.914063 37.777344 C 56.265625 37.773438 55.394531 37.738281 54.769531 37.8125 L 54.613281 38.523438 "/>
<path style=" stroke:none;fill-rule:evenodd;fill:rgb(13.699341%,12.199402%,12.5%);fill-opacity:1;" d="M 52.710938 43.898438 C 52.800781 43.683594 52.925781 42.695313 52.976563 42.390625 C 53.199219 41.09375 53.570313 38.933594 53.703125 37.757813 L 52.875 37.824219 L 51.945313 43.890625 L 52.710938 43.898438 "/>
<path style=" stroke:none;fill-rule:evenodd;fill:rgb(0%,32.499695%,64.698792%);fill-opacity:1;" d="M 52.96875 21.289063 C 53.257813 20.496094 53.585938 19.523438 53.949219 18.804688 L 54.414063 21.339844 C 54.503906 21.761719 54.59375 22.175781 54.683594 22.59375 C 54.769531 22.980469 54.894531 23.445313 54.945313 23.828125 L 52.046875 23.820313 Z M 50.21875 28.667969 C 50.46875 28.527344 50.855469 26.667969 51.074219 26.617188 L 55.425781 26.621094 C 55.566406 26.648438 55.542969 26.746094 55.578125 26.914063 C 55.6875 27.492188 55.855469 28.109375 55.945313 28.667969 L 59.195313 28.660156 L 56.359375 15.101563 C 55.40625 15.082031 54.363281 15.066406 53.417969 15.113281 C 52.546875 15.15625 52.097656 15.476563 51.746094 16.34375 C 51.191406 17.710938 50.613281 19.085938 50.035156 20.441406 C 49.453125 21.808594 48.894531 23.183594 48.316406 24.558594 L 46.609375 28.667969 L 50.21875 28.667969 "/>
<path style=" stroke:none;fill-rule:evenodd;fill:rgb(0%,32.499695%,64.698792%);fill-opacity:1;" d="M 46.90625 18.332031 L 47.332031 15.375 C 47.042969 15.199219 46.09375 15.023438 45.691406 14.957031 C 42.867188 14.492188 39.046875 15.351563 38.363281 18.574219 C 38.074219 19.945313 38.636719 21.140625 39.761719 22.035156 C 41.0625 23.070313 43.203125 23.582031 43.207031 24.675781 C 43.207031 25.25 42.695313 25.632813 42.277344 25.8125 C 41.847656 25.992188 41.003906 26.023438 40.496094 25.992188 C 39.199219 25.914063 38.375 25.550781 37.351563 25.101563 L 36.847656 28.148438 C 37.082031 28.203125 37.367188 28.335938 37.628906 28.414063 C 40.332031 29.210938 44.339844 29.101563 46.125 26.613281 C 46.667969 25.855469 47.042969 24.59375 46.773438 23.433594 C 46.652344 22.902344 46.378906 22.355469 46.089844 22.070313 C 45.898438 21.882813 45.804688 21.742188 45.59375 21.5625 C 44.53125 20.660156 43.335938 20.394531 42.480469 19.65625 C 42.128906 19.351563 41.671875 19.027344 42.15625 18.324219 C 42.703125 17.527344 44.503906 17.621094 45.390625 17.824219 C 46.203125 18.011719 46.605469 18.261719 46.90625 18.332031 "/>
<path style=" stroke:none;fill-rule:evenodd;fill:rgb(0%,32.499695%,64.698792%);fill-opacity:1;" d="M 24.414063 22.535156 C 24.027344 21.199219 23.183594 20.007813 22.464844 19.207031 C 22.355469 19.085938 22.273438 18.957031 22.152344 18.847656 C 22.0625 18.765625 22.0625 18.785156 21.980469 18.6875 C 21.605469 18.238281 20.144531 17.132813 19.59375 16.859375 C 19.667969 17.324219 20.21875 19.199219 20.382813 19.839844 L 21.933594 25.726563 C 22.183594 26.707031 22.484375 27.6875 22.726563 28.648438 L 26.378906 28.671875 C 26.429688 28.460938 26.960938 27.28125 27.089844 26.960938 C 27.324219 26.390625 27.554688 25.839844 27.789063 25.277344 C 28.738281 23.011719 29.625 20.726563 30.5625 18.449219 C 30.867188 17.699219 31.726563 15.703125 31.933594 15.089844 L 28.214844 15.089844 L 24.804688 24.308594 C 24.648438 24.007813 24.59375 22.804688 24.414063 22.535156 "/>
<path style=" stroke:none;fill-rule:evenodd;fill:rgb(0%,32.499695%,64.698792%);fill-opacity:1;" d="M 36.84375 15.085938 L 33.34375 15.09375 C 32.957031 17.339844 32.617188 19.605469 32.253906 21.847656 L 31.4375 26.953125 C 31.355469 27.496094 31.230469 28.113281 31.195313 28.65625 L 34.667969 28.65625 L 36.84375 15.085938 "/>
<path style=" stroke:none;fill-rule:evenodd;fill:rgb(98.399353%,66.699219%,9.799194%);fill-opacity:1;" d="M 19.59375 16.859375 C 20.144531 17.132813 21.605469 18.238281 21.980469 18.6875 C 22.0625 18.785156 22.0625 18.765625 22.152344 18.847656 C 22.273438 18.957031 22.355469 19.085938 22.464844 19.207031 C 23.183594 20.007813 24.027344 21.199219 24.414063 22.535156 C 24.460938 22.355469 23.867188 19.609375 23.78125 19.152344 C 23.65625 18.496094 23.28125 16.238281 23.039063 15.804688 C 22.78125 15.339844 22.40625 15.125 21.695313 15.101563 C 20.378906 15.058594 18.96875 15.097656 17.628906 15.082031 C 17.117188 15.074219 16.148438 14.996094 15.769531 15.265625 C 15.773438 15.269531 15.785156 15.269531 15.789063 15.277344 C 15.792969 15.289063 15.808594 15.289063 15.8125 15.292969 C 15.984375 15.382813 15.75 15.269531 15.859375 15.320313 L 16.253906 15.449219 C 17.242188 15.777344 18.820313 16.316406 19.59375 16.859375 "/>
</g>
</svg>
