<?xml version="1.0" standalone="no"?>
<!DOCTYPE svg PUBLIC "-//W3C//DTD SVG 20010904//EN"
 "http://www.w3.org/TR/2001/REC-SVG-20010904/DTD/svg10.dtd">
<svg version="1.0" xmlns="http://www.w3.org/2000/svg"
 width="559.000000pt" height="554.000000pt" viewBox="0 0 559.000000 554.000000"
 preserveAspectRatio="xMidYMid meet">

<g transform="translate(0.000000,554.000000) scale(0.100000,-0.100000)"
fill="#000000" stroke="none">
<path d="M1025 5088 c-2 -7 -24 -312 -49 -678 -26 -366 -49 -686 -52 -712 -8
-63 -29 -62 -44 1 l-12 49 -76 -43 c-42 -23 -93 -48 -113 -54 -58 -19 -90 -60
-98 -128 -4 -32 -16 -74 -28 -93 -12 -19 -31 -60 -43 -90 -21 -52 -21 -61 -10
-165 20 -194 61 -447 76 -476 8 -16 23 -33 33 -39 12 -6 133 -10 320 -10 l301
0 4 23 c3 12 9 94 15 182 18 279 81 1158 87 1213 4 41 9 52 23 52 19 0 12 84
86 -935 19 -264 35 -490 35 -502 l0 -23 191 0 190 0 -7 23 c-11 37 -42 93 -58
106 -16 14 -71 11 -109 -4 -18 -7 -17 -5 2 34 15 28 28 41 42 41 35 0 58 19
84 71 14 27 40 69 58 93 18 24 54 83 81 130 38 67 54 86 71 86 39 0 70 -36
109 -124 21 -48 45 -86 52 -86 8 0 14 4 14 8 0 28 58 464 104 787 84 577 116
897 116 1153 l0 122 -216 0 -216 0 -27 -27 c-31 -32 -21 63 -81 -786 -17 -230
-35 -460 -40 -510 -5 -51 -10 -100 -10 -109 0 -32 -29 -20 -34 15 -7 39 -25
283 -66 877 -36 521 -36 520 -111 532 -24 3 -167 7 -317 7 -210 1 -274 -2
-277 -11z"/>
<path d="M3901 5091 l-35 -6 122 -80 c67 -44 122 -83 122 -86 0 -7 -134 -70
-250 -118 -102 -42 -114 -62 -115 -196 0 -55 1 -515 3 -1022 l2 -923 270 0
270 0 2 467 c3 434 4 468 20 471 11 2 25 -9 38 -30 11 -18 83 -222 160 -454
101 -303 147 -427 164 -443 21 -20 31 -21 238 -21 188 0 217 2 222 16 11 30 6
232 -8 306 -20 102 -57 215 -136 413 -65 164 -130 352 -130 378 0 7 16 21 35
31 55 30 120 106 146 172 23 58 24 67 27 414 2 232 -1 377 -8 419 -24 138 -95
229 -213 272 -61 23 -72 23 -487 25 -234 1 -440 -1 -459 -5z m618 -456 c14
-13 16 -53 16 -275 l0 -260 -33 -32 c-32 -32 -34 -33 -120 -33 l-87 0 -3 282
-2 282 26 17 c63 42 170 52 203 19z"/>
<path d="M300 4928 c0 -158 7 -244 31 -413 11 -76 14 -82 57 -121 35 -33 45
-49 47 -78 2 -32 13 -48 82 -114 78 -76 89 -93 167 -261 6 -14 27 -41 46 -61
37 -39 127 -96 136 -87 3 3 -15 288 -40 634 -25 345 -46 636 -46 646 0 16 -18
17 -240 17 l-240 0 0 -162z"/>
<path d="M2697 5065 c-42 -6 -80 -15 -84 -19 -4 -4 -42 -233 -85 -509 -252
-1628 -252 -1625 -210 -1704 12 -22 38 -55 58 -71 33 -28 36 -34 31 -66 l-6
-36 204 0 203 0 6 68 c13 146 36 321 45 345 18 48 49 59 144 51 47 -3 91 -10
97 -14 9 -5 19 -82 32 -226 11 -121 21 -220 23 -222 2 -3 287 -4 438 -3 l67 1
0 63 c0 34 -36 350 -80 702 -92 733 -107 848 -121 890 -13 40 -101 186 -111
183 -4 -2 -25 -27 -47 -57 l-40 -53 -84 83 c-91 91 -116 142 -104 214 5 31 -2
46 -60 133 -36 53 -80 127 -99 164 -52 103 -63 107 -217 83z m311 -775 c7 -58
23 -224 35 -370 20 -237 21 -266 7 -272 -25 -11 -150 -9 -150 2 0 17 40 506
50 620 6 58 10 111 10 118 0 8 8 12 17 10 15 -3 20 -23 31 -108z"/>
<path d="M1815 2545 c-126 -37 -198 -121 -225 -262 -16 -84 -9 -1644 8 -1693
22 -66 77 -144 126 -182 96 -71 246 -87 339 -36 48 27 94 107 102 179 l6 46
64 6 c80 6 104 21 143 91 35 60 92 106 160 127 55 16 118 70 132 115 16 47 6
90 -30 138 -44 58 -40 82 26 146 104 102 99 74 102 545 3 446 -3 536 -44 622
-32 66 -99 126 -173 154 -45 17 -72 20 -136 17 -89 -5 -118 -17 -207 -83 -127
-95 -232 -80 -299 42 -20 37 -43 44 -94 28z m448 -416 c16 -20 17 -68 17 -689
0 -628 -1 -669 -17 -674 -10 -3 -49 -6 -86 -7 -52 -1 -73 2 -85 15 -15 15 -17
75 -20 664 -2 461 1 655 9 674 14 35 51 49 114 43 35 -3 55 -11 68 -26z"/>
<path d="M310 2320 l0 -230 311 0 310 0 -6 -21 c-4 -12 -35 -81 -69 -153 -35
-72 -107 -225 -161 -341 -55 -115 -157 -326 -227 -469 -71 -142 -136 -283
-145 -315 -10 -38 -17 -115 -20 -237 l-5 -181 172 -7 c94 -4 360 -4 591 0
l419 7 0 117 0 117 -135 39 c-131 38 -135 40 -131 64 3 14 8 42 12 63 l6 37
-187 0 -187 0 7 27 c8 35 259 570 432 923 186 378 175 345 181 588 l4 202
-586 0 -586 0 0 -230z"/>
<path d="M2870 1946 l0 -605 23 -25 c15 -18 43 -31 89 -42 l66 -17 -4 -51 c-3
-28 0 -91 5 -139 12 -117 28 -137 116 -137 35 0 77 3 94 6 l31 7 0 183 c0 251
8 247 100 -38 39 -123 101 -313 138 -423 63 -188 69 -203 112 -246 56 -56 70
-59 256 -59 l144 0 0 1090 0 1090 -210 0 -210 0 0 -467 -1 -468 -23 27 c-13
15 -38 69 -54 120 -17 51 -76 235 -132 408 -100 310 -125 372 -156 384 -9 3
-99 6 -200 6 l-184 0 0 -604z"/>
<path d="M4170 2538 c0 -7 -1 -498 -3 -1091 l-2 -1077 483 0 482 0 0 225 0
225 -240 0 -240 0 0 210 0 210 190 0 189 0 5 33 c6 34 46 391 46 407 0 6 -81
10 -215 10 -137 0 -215 4 -215 10 0 6 -1 97 -1 203 l0 192 241 3 240 2 0 225
0 225 -480 0 c-377 0 -480 -3 -480 -12z"/>
</g>
</svg>
